<svg width="96" height="24" viewBox="0 0 96 24" fill="none" xmlns="http://www.w3.org/2000/svg">
<rect width="96" height="24" rx="12" fill="url(#paint0_radial_178_9706)"/>
<path d="M11.358 16.0994C10.8561 16.0994 10.4087 16.0071 10.0157 15.8224C9.62509 15.6378 9.31496 15.3833 9.08532 15.0589C8.85568 14.7346 8.73612 14.3629 8.72665 13.9439H10.2181C10.2347 14.2256 10.3531 14.4541 10.5732 14.6293C10.7934 14.8045 11.055 14.892 11.358 14.892C11.5995 14.892 11.8126 14.8388 11.9972 14.7322C12.1843 14.6233 12.3299 14.473 12.434 14.2812C12.5406 14.0871 12.5938 13.8646 12.5938 13.6136C12.5938 13.358 12.5394 13.133 12.4305 12.9389C12.324 12.7448 12.176 12.5933 11.9866 12.4844C11.7972 12.3755 11.5806 12.3198 11.3367 12.3175C11.1237 12.3175 10.9165 12.3613 10.7153 12.4489C10.5164 12.5365 10.3614 12.656 10.2501 12.8075L8.8829 12.5625L9.22736 8.72727H13.6734V9.98438H10.4951L10.3069 11.8061H10.3495C10.4774 11.6262 10.6703 11.477 10.9284 11.3587C11.1864 11.2403 11.4752 11.1811 11.7948 11.1811C12.2328 11.1811 12.6234 11.2841 12.9667 11.4901C13.31 11.696 13.5811 11.9789 13.7799 12.3388C13.9788 12.6963 14.077 13.1082 14.0747 13.5746C14.077 14.0646 13.9634 14.5002 13.7338 14.8814C13.5065 15.2602 13.1881 15.5585 12.7785 15.7763C12.3713 15.9917 11.8978 16.0994 11.358 16.0994ZM23.9211 11.2734H22.3657C22.3373 11.0722 22.2793 10.8935 22.1917 10.7372C22.1041 10.5786 21.9916 10.4437 21.8543 10.3324C21.717 10.2211 21.5584 10.1359 21.3785 10.0767C21.2009 10.0175 21.008 9.98793 20.7996 9.98793C20.4232 9.98793 20.0953 10.0814 19.816 10.2685C19.5366 10.4531 19.32 10.723 19.1661 11.0781C19.0122 11.4309 18.9353 11.8594 18.9353 12.3636C18.9353 12.8821 19.0122 13.3177 19.1661 13.6705C19.3224 14.0232 19.5402 14.2895 19.8195 14.4695C20.0989 14.6494 20.422 14.7393 20.789 14.7393C20.9949 14.7393 21.1855 14.7121 21.3607 14.6577C21.5383 14.6032 21.6957 14.5239 21.833 14.4197C21.9703 14.3132 22.084 14.1842 22.1739 14.0327C22.2662 13.8812 22.3302 13.7083 22.3657 13.5142L23.9211 13.5213C23.8808 13.8551 23.7802 14.1771 23.6192 14.4872C23.4606 14.795 23.2464 15.0708 22.9765 15.3146C22.709 15.5561 22.3894 15.7479 22.0177 15.8899C21.6483 16.0296 21.2305 16.0994 20.7641 16.0994C20.1154 16.0994 19.5354 15.9527 19.0241 15.6591C18.5151 15.3655 18.1126 14.9406 17.8167 14.3842C17.5231 13.8279 17.3763 13.1544 17.3763 12.3636C17.3763 11.5705 17.5255 10.8958 17.8238 10.3395C18.1221 9.78314 18.5269 9.35937 19.0383 9.06818C19.5496 8.77462 20.1249 8.62784 20.7641 8.62784C21.1855 8.62784 21.5761 8.68703 21.936 8.8054C22.2982 8.92377 22.619 9.09659 22.8983 9.32386C23.1777 9.54877 23.405 9.82457 23.5802 10.1513C23.7577 10.478 23.8714 10.852 23.9211 11.2734ZM31.7069 12.3636C31.7069 13.1567 31.5566 13.8314 31.2559 14.3878C30.9577 14.9441 30.5505 15.3691 30.0344 15.6626C29.5206 15.9538 28.943 16.0994 28.3014 16.0994C27.6551 16.0994 27.0751 15.9527 26.5613 15.6591C26.0476 15.3655 25.6416 14.9406 25.3433 14.3842C25.045 13.8279 24.8959 13.1544 24.8959 12.3636C24.8959 11.5705 25.045 10.8958 25.3433 10.3395C25.6416 9.78314 26.0476 9.35937 26.5613 9.06818C27.0751 8.77462 27.6551 8.62784 28.3014 8.62784C28.943 8.62784 29.5206 8.77462 30.0344 9.06818C30.5505 9.35937 30.9577 9.78314 31.2559 10.3395C31.5566 10.8958 31.7069 11.5705 31.7069 12.3636ZM30.148 12.3636C30.148 11.8499 30.0711 11.4167 29.9172 11.0639C29.7657 10.7112 29.5514 10.4437 29.2744 10.2614C28.9974 10.0791 28.6731 9.98793 28.3014 9.98793C27.9297 9.98793 27.6054 10.0791 27.3284 10.2614C27.0514 10.4437 26.836 10.7112 26.6821 11.0639C26.5306 11.4167 26.4548 11.8499 26.4548 12.3636C26.4548 12.8774 26.5306 13.3106 26.6821 13.6634C26.836 14.0161 27.0514 14.2836 27.3284 14.4659C27.6054 14.6482 27.9297 14.7393 28.3014 14.7393C28.6731 14.7393 28.9974 14.6482 29.2744 14.4659C29.5514 14.2836 29.7657 14.0161 29.9172 13.6634C30.0711 13.3106 30.148 12.8774 30.148 12.3636ZM33.9459 8.72727L35.4126 11.206H35.4694L36.9431 8.72727H38.6796L36.4601 12.3636L38.7293 16H36.9608L35.4694 13.5178H35.4126L33.9211 16H32.1597L34.436 12.3636L32.2023 8.72727H33.9459ZM39.6526 16V8.72727H42.5219C43.0735 8.72727 43.5435 8.83262 43.9317 9.04332C44.32 9.25166 44.6159 9.54167 44.8195 9.91335C45.0255 10.2827 45.1285 10.7088 45.1285 11.1918C45.1285 11.6747 45.0243 12.1009 44.816 12.4702C44.6076 12.8395 44.3058 13.1271 43.9104 13.3331C43.5174 13.5391 43.0416 13.642 42.4829 13.642H40.654V12.4098H42.2343C42.5302 12.4098 42.7741 12.3589 42.9658 12.2571C43.1599 12.1529 43.3044 12.0097 43.3991 11.8274C43.4961 11.6428 43.5447 11.4309 43.5447 11.1918C43.5447 10.9503 43.4961 10.7396 43.3991 10.5597C43.3044 10.3774 43.1599 10.2365 42.9658 10.1371C42.7717 10.0353 42.5255 9.98438 42.2272 9.98438H41.1903V16H39.6526ZM46.5409 16H44.8932L47.4039 8.72727H49.3854L51.8925 16H50.2448L48.423 10.3892H48.3662L46.5409 16ZM46.4379 13.1413H50.33V14.3416H46.4379V13.1413ZM52.7678 16V8.72727H54.3055V11.728H57.4269V8.72727H58.961V16H57.4269V12.9957H54.3055V16H52.7678ZM60.2288 16V8.72727H65.1294V9.99503H61.7664V11.728H64.8772V12.9957H61.7664V14.7322H65.1436V16H60.2288ZM66.3518 16V8.72727H67.8895V11.728H71.0109V8.72727H72.545V16H71.0109V12.9957H67.8895V16H66.3518ZM73.8128 8.72727H75.3469V13.3011H75.4072L78.55 8.72727H79.8959V16H78.3582V11.4226H78.305L75.1444 16H73.8128V8.72727ZM81.1663 8.72727H82.7004V13.3011H82.7607L85.9035 8.72727H87.2494V16H85.7117V11.4226H85.6585L82.498 16H81.1663V8.72727ZM84.9163 6.82386H85.971C85.9686 7.25473 85.8088 7.60156 85.4916 7.86435C85.1767 8.12713 84.7506 8.25852 84.2132 8.25852C83.6734 8.25852 83.2461 8.12713 82.9312 7.86435C82.6163 7.60156 82.4589 7.25473 82.4589 6.82386H83.5065C83.5041 6.98722 83.5562 7.134 83.6627 7.2642C83.7716 7.39441 83.9551 7.45952 84.2132 7.45952C84.4641 7.45952 84.644 7.3956 84.7529 7.26776C84.8618 7.13991 84.9163 6.99195 84.9163 6.82386Z" fill="white"/>
<defs>
<radialGradient id="paint0_radial_178_9706" cx="0" cy="0" r="1" gradientUnits="userSpaceOnUse" gradientTransform="translate(11.7493 12) rotate(15.2404) scale(94.153 1093.32)">
<stop offset="0.137547" stop-color="#FB527B"/>
<stop offset="1" stop-color="#FEE03B"/>
</radialGradient>
</defs>
</svg>
