<svg width="23" height="23" viewBox="0 0 23 23" fill="none" xmlns="http://www.w3.org/2000/svg">
<path fill-rule="evenodd" clip-rule="evenodd" d="M3.43597 4.18404C3 5.03969 3 6.15979 3 8.4V13.6C3 15.8402 3 16.9603 3.43597 17.816C3.81947 18.5686 4.43139 19.1805 5.18404 19.564C6.03969 20 7.15979 20 9.4 20H14.6C16.8402 20 17.9603 20 18.816 19.564C19.5686 19.1805 20.1805 18.5686 20.564 17.816C21 16.9603 21 15.8402 21 13.6V8.4C21 6.15979 21 5.03969 20.564 4.18404C20.1805 3.43139 19.5686 2.81947 18.816 2.43597C17.9603 2 16.8402 2 14.6 2H9.4C7.15979 2 6.03969 2 5.18404 2.43597C4.43139 2.81947 3.81947 3.43139 3.43597 4.18404ZM5.10899 7.54601C5 7.75992 5 8.03995 5 8.6V14.8C5 15.9201 5 16.4802 5.21799 16.908C5.40973 17.2843 5.71569 17.5903 6.09202 17.782C6.51984 18 7.0799 18 8.2 18H15.8C16.9201 18 17.4802 18 17.908 17.782C18.2843 17.5903 18.5903 17.2843 18.782 16.908C19 16.4802 19 15.9201 19 14.8V8.6C19 8.03995 19 7.75992 18.891 7.54601C18.7951 7.35785 18.6422 7.20487 18.454 7.10899C18.2401 7 17.9601 7 17.4 7H6.6C6.03995 7 5.75992 7 5.54601 7.10899C5.35785 7.20487 5.20487 7.35785 5.10899 7.54601Z" fill="white"/>
</svg>
