<svg width="21" height="21" viewBox="0 0 21 21" fill="none" xmlns="http://www.w3.org/2000/svg">
<path fill-rule="evenodd" clip-rule="evenodd" d="M2.83504 10.2501C2.83504 8.05504 3.78045 5.83302 5.22884 4.36471C5.95314 3.63045 6.78037 3.10242 7.66504 2.84683V3.50011C7.66504 8.93183 12.0683 13.3351 17.5 13.3351H18.2985C18.1039 14.4403 17.5026 15.4412 16.6217 16.2536C15.3447 17.4314 13.5212 18.1651 11.6768 18.1651H10.75C6.3787 18.1651 2.83504 14.6214 2.83504 10.2501ZM18.2818 11.6651C17.9693 9.90999 17.1148 8.29577 14.9096 6.09053C13.1793 4.36019 11.7858 3.44623 10.3954 2.94519C10.0394 2.81689 9.68514 2.73565 9.33504 2.698V3.50011C9.33504 8.00951 12.9906 11.6651 17.5 11.6651H18.2818ZM10.9615 1.37408C8.30561 0.417001 5.80675 1.40082 4.03993 3.19193C2.28569 4.9703 1.16504 7.61266 1.16504 10.2501C1.16504 15.5437 5.45639 19.8351 10.75 19.8351H11.6768C13.941 19.8351 16.1686 18.9433 17.7539 17.4812C19.3478 16.0112 20.3329 13.9179 19.9576 11.5603C19.5961 9.28921 18.5218 7.34102 16.0905 4.90966C14.2499 3.06912 12.6548 1.98427 10.9615 1.37408Z" fill="#8E8E93"/>
</svg>
