<svg width="32" height="32" viewBox="0 0 32 32" fill="none" xmlns="http://www.w3.org/2000/svg">
<g clip-path="url(#clip0_178_9079)">
<path d="M13.6517 18.5321C13.6216 18.5896 13.5931 18.6485 13.5667 18.7088C13.2849 19.3512 13.2498 20.1053 13.6362 20.8454C13.966 21.477 14.5377 21.9674 15.1615 22.3785C16.0542 22.9668 16.768 23.4529 17.4891 23.9439L17.5872 24.0107C18.3421 24.5248 19.1122 25.0482 20.0964 25.6933C20.3284 25.8454 20.5476 26.0016 20.7875 26.1726C20.8377 26.2084 20.8887 26.2447 20.941 26.2819C21.2286 26.4862 21.5533 26.7132 21.8942 26.9135C22.5847 27.3191 23.4729 27.6952 24.5571 27.5954C26.2227 27.4422 27.0678 25.9108 27.4043 24.1119C28.1355 20.2033 29.5871 11.6607 29.9269 8.08984C29.9723 7.6131 29.9193 7.08222 29.8752 6.82471C29.8298 6.55915 29.6888 5.85123 29.0273 5.31448C28.6566 5.01366 28.2508 4.87671 27.9718 4.81007C27.6834 4.74116 27.409 4.71886 27.1994 4.72256C26.5143 4.73463 25.7841 4.92974 24.5821 5.3659C23.3543 5.81144 21.4692 6.57403 18.4061 7.84811C16.2454 8.74678 11.9452 10.5991 5.51664 13.3999C4.94881 13.627 4.42274 13.8867 4.00426 14.1975C3.61921 14.4834 3.06362 15.0066 2.9618 15.8188C2.88526 16.4293 3.06362 16.9941 3.42473 17.438C3.73808 17.8231 4.13746 18.0547 4.43541 18.199C4.87726 18.4131 5.47238 18.5996 5.98659 18.7607C6.12309 18.8035 6.25389 18.8444 6.3746 18.8837C6.95933 19.0738 7.65555 19.2835 8.31834 19.4497C8.94631 19.6072 9.66454 19.7573 10.2412 19.7697C11.3898 19.7946 12.4959 19.3232 13.5141 18.6249C13.5602 18.5938 13.606 18.5629 13.6517 18.5321ZM22.0929 11.669L22.1952 12.1198L22.0929 11.669Z" stroke="#FB527B" stroke-width="3"/>
</g>
<defs>
<clipPath id="clip0_178_9079">
<rect width="32" height="32" fill="white"/>
</clipPath>
</defs>
</svg>
