<svg width="20" height="20" viewBox="0 0 20 20" fill="none" xmlns="http://www.w3.org/2000/svg">
<path d="M17.3661 3.84221C16.9405 3.41638 16.4351 3.07858 15.8789 2.84811C15.3227 2.61765 14.7265 2.49902 14.1244 2.49902C13.5224 2.49902 12.9262 2.61765 12.37 2.84811C11.8138 3.07858 11.3084 3.41638 10.8828 3.84221L9.99945 4.72554L9.11611 3.84221C8.25637 2.98247 7.09031 2.49947 5.87445 2.49947C4.65859 2.49947 3.49252 2.98247 2.63278 3.84221C1.77304 4.70195 1.29004 5.86802 1.29004 7.08388C1.29004 8.29974 1.77304 9.4658 2.63278 10.3255L3.51611 11.2089L9.99945 17.6922L16.4828 11.2089L17.3661 10.3255C17.7919 9.89991 18.1297 9.39456 18.3602 8.83834C18.5907 8.28212 18.7093 7.68595 18.7093 7.08388C18.7093 6.4818 18.5907 5.88563 18.3602 5.32942C18.1297 4.7732 17.7919 4.26784 17.3661 3.84221Z" stroke="white" stroke-width="1.66667" stroke-linecap="round" stroke-linejoin="round"/>
</svg>
